<svg xmlns="http://www.w3.org/2000/svg" xmlns:xlink="http://www.w3.org/1999/xlink" version="1.1" id="Layer_1" x="0px" y="0px" viewBox="0 0 750 750" style="enable-background:new 0 0 750 750;" xml:space="preserve">
<style type="text/css">
	.st0{opacity:0.4;fill:#A8C4E4;}
	.st1{fill:#A8C4E4;}
	.st2{fill:#F5F8FD;}
	.st3{fill:#6999D1;}
	.st4{opacity:0.29;fill:#46456D;}
	.st5{fill:url(#SVGID_1_);}
	.st6{fill:#B6CFE9;}
	.st7{fill:#42489E;}
	.st8{fill:#DBE8F7;}
	.st9{fill:#FFFFFF;}
	.st10{fill:#5470B6;}
	.st11{fill:#D05EA3;}
	.st12{fill:#C2DEF4;}
	.st13{fill:#2A499C;}
	.st14{fill:#FFCF45;}
	.st15{fill:#CA4A9B;}
	.st16{fill:#372F90;}
	.st17{fill:#FBC1B1;}
	.st18{fill:#4D51A3;}
	.st19{fill:#F09A83;}
	.st20{fill:url(#SVGID_2_);}
	.st21{fill:#9EBCE0;}
	.st22{fill:#C8D2EB;}
	.st23{fill:#494DA0;}
	.st24{fill:#FBDDD3;}
	.st25{fill:#E287B8;}
	.st26{fill:#4762AD;}
	.st27{fill:#E1E9F3;}
	.st28{fill:#525CA9;}
	.st29{fill:#DCEEFA;}
</style>
<g>
	<g>
		<path class="st0" d="M600.66,620.85L241.39,413.43l134.6-74.56l290.73,181.41c24.3,15.16,23.4,50.84-1.63,64.76L600.66,620.85z"/>
		<g>
			<g>
				<path class="st1" d="M500.69,481.4c0,0-1.89,1.05-2.03,1.22c-0.07,0.08-0.73,0.81-1.04,1.09c-0.23,0.21-0.97,0.82-1.11,0.92      c-0.4,0.3-84.36,51.94-84.36,51.94l-0.04,13.82l83.07-51.07c0.46-0.28,0.88-0.57,1.28-0.87c0.14-0.1,0.25-0.21,0.38-0.32      c0.25-0.2,0.51-0.4,0.73-0.61l0.01-0.01c0.3-0.28,0.57-0.56,0.83-0.85c0.07-0.08,0.14-0.16,0.2-0.24      c0.08-0.09,0.16-0.18,0.23-0.27c0.06-0.08,0.11-0.17,0.17-0.25c0.17-0.23,0.33-0.47,0.47-0.71c0.05-0.08,0.12-0.16,0.16-0.24      c0.04-0.07,0.06-0.13,0.09-0.2c0.11-0.21,0.21-0.43,0.3-0.64c0.04-0.1,0.11-0.2,0.14-0.31c0.02-0.05,0.03-0.11,0.05-0.16      c0.07-0.21,0.13-0.42,0.18-0.62c0.03-0.12,0.08-0.23,0.1-0.35c0.01-0.04,0.01-0.08,0.01-0.12c0.04-0.22,0.06-0.45,0.08-0.67      c0.01-0.12,0.04-0.24,0.04-0.36c0-0.06,0-0.12,0-0.18L500.69,481.4z"/>
				<path class="st1" d="M411.81,536.76c-0.56,0.33-1.14,0.63-1.75,0.91c-0.19,0.09-0.37,0.17-0.56,0.25      c-0.67,0.29-1.36,0.56-2.07,0.79c-0.04,0.01-0.08,0.03-0.12,0.04c-0.6,0.19-1.21,0.37-1.83,0.52c-0.09,0.02-0.18,0.04-0.27,0.06      c-0.53,0.13-1.07,0.25-1.62,0.35c-0.07,0.01-0.14,0.02-0.21,0.03c-0.71,0.12-1.42,0.22-2.14,0.3c-0.26,0.03-0.53,0.05-0.8,0.07      c-0.42,0.04-0.84,0.06-1.26,0.08c-0.3,0.01-0.59,0.03-0.89,0.03c-0.36,0.01-0.73,0.01-1.09,0.01c-0.31,0-0.63-0.01-0.94-0.02      c-0.34-0.01-0.67-0.03-1.01-0.05c-0.32-0.02-0.64-0.04-0.96-0.07c-0.33-0.03-0.66-0.07-0.99-0.11      c-0.31-0.04-0.63-0.08-0.94-0.13c-0.35-0.05-0.7-0.12-1.05-0.18c-0.29-0.05-0.58-0.11-0.87-0.17c-0.42-0.09-0.84-0.2-1.26-0.31      c-0.23-0.06-0.47-0.12-0.7-0.18c-0.74-0.22-1.47-0.46-2.17-0.73c-0.35-0.14-0.69-0.28-1.03-0.43c-0.17-0.08-0.35-0.15-0.52-0.23      c-0.51-0.24-1.02-0.5-1.5-0.78l-64.38-37.17c-3.98-2.3-5.96-1.11-5.95-4.11l-0.04,9.62c-0.01,3,1.97,6.01,5.95,8.31l64.38,37.17      c0.48,0.28,0.98,0.54,1.5,0.78c0.17,0.08,0.35,0.15,0.52,0.23c0.3,0.13,0.59,0.27,0.89,0.39c0.04,0.02,0.09,0.03,0.14,0.05      c0.7,0.27,1.43,0.52,2.17,0.73c0.05,0.01,0.09,0.03,0.14,0.05c0.18,0.05,0.37,0.09,0.56,0.14c0.42,0.11,0.83,0.22,1.26,0.31      c0.1,0.02,0.19,0.05,0.28,0.07c0.19,0.04,0.39,0.07,0.59,0.1c0.35,0.07,0.7,0.13,1.05,0.18c0.12,0.02,0.24,0.04,0.36,0.06      c0.19,0.03,0.39,0.04,0.59,0.07c0.33,0.04,0.66,0.08,0.99,0.11c0.13,0.01,0.26,0.03,0.39,0.04c0.19,0.02,0.39,0.02,0.58,0.03      c0.33,0.02,0.67,0.04,1,0.05c0.13,0,0.27,0.02,0.4,0.02c0.18,0,0.36,0,0.54,0c0.36,0,0.73,0,1.09-0.01c0.15,0,0.29,0,0.44,0      c0.15-0.01,0.3-0.02,0.46-0.03c0.42-0.02,0.84-0.05,1.26-0.08c0.17-0.01,0.34-0.02,0.51-0.03c0.1-0.01,0.2-0.03,0.29-0.04      c0.72-0.08,1.44-0.17,2.14-0.3c0.06-0.01,0.11-0.01,0.17-0.02c0.01,0,0.02-0.01,0.04-0.01c0.55-0.1,1.09-0.22,1.62-0.35      c0.09-0.02,0.18-0.04,0.27-0.06c0.62-0.15,1.23-0.33,1.83-0.52c0.01,0,0.02,0,0.02-0.01c0.03-0.01,0.06-0.02,0.09-0.03      c0.71-0.23,1.4-0.5,2.07-0.79c0.19-0.08,0.38-0.17,0.56-0.25c0.61-0.28,1.19-0.58,1.75-0.91c0.07-0.04,0.14-0.07,0.21-0.11      c0.04-0.03,0.09-0.05,0.13-0.08l0.04-13.82C412.04,536.64,411.92,536.69,411.81,536.76z"/>
				<g>
					<path class="st2" d="M494.75,473.67c7.73,4.47,7.95,11.68,0.48,16.27l-83.07,51.07c-7.78,4.78-20.84,4.88-28.89,0.23       l-64.38-37.17c-8.05-4.65-7.91-12.22,0.31-16.74l87.89-48.29c7.9-4.34,20.36-4.24,28.09,0.22L494.75,473.67z"/>
				</g>
			</g>
			<polygon class="st3" points="353.38,468.49 444.1,521.37 465.5,508.54 376.02,456.48    "/>
			<polygon class="st4" points="444.1,521.37 444.1,530.72 471.13,514.1 471.13,505.51    "/>
		</g>
		<path class="st3" d="M687.38,332.03c0-0.01,0-0.03,0-0.04c0-0.14,0-0.29-0.01-0.44c0-0.15-0.01-0.29-0.02-0.44    c0-0.02,0-0.04,0-0.06c0-0.02,0-0.04,0-0.06c-0.01-0.1-0.01-0.2-0.02-0.31c-0.01-0.14-0.03-0.29-0.05-0.43    c-0.01-0.07-0.02-0.14-0.03-0.2c0-0.03-0.01-0.06-0.01-0.09c-0.01-0.05-0.01-0.09-0.02-0.14c-0.02-0.14-0.05-0.29-0.07-0.43    c-0.03-0.14-0.05-0.27-0.08-0.41l0-0.02c0,0,0-0.01,0-0.01c-0.03-0.15-0.07-0.29-0.1-0.44c-0.04-0.14-0.07-0.29-0.11-0.43    c-0.01-0.04-0.02-0.08-0.03-0.11c-0.01-0.03-0.02-0.05-0.02-0.08c-0.02-0.08-0.04-0.15-0.07-0.23c-0.04-0.14-0.09-0.27-0.13-0.41    c-0.03-0.1-0.07-0.21-0.11-0.31c-0.01-0.01-0.01-0.03-0.02-0.04c-0.01-0.02-0.01-0.03-0.02-0.05c-0.05-0.13-0.1-0.26-0.15-0.39    c-0.05-0.12-0.1-0.25-0.15-0.37c-0.02-0.05-0.04-0.1-0.07-0.16c-0.01-0.02-0.02-0.05-0.03-0.07c-0.02-0.05-0.04-0.1-0.06-0.15    c-0.06-0.13-0.11-0.26-0.17-0.38c-0.06-0.13-0.12-0.25-0.18-0.38c-0.01-0.01-0.01-0.02-0.02-0.04c-0.01-0.02-0.02-0.04-0.03-0.06    c-0.07-0.13-0.13-0.27-0.21-0.4c-0.07-0.12-0.14-0.24-0.21-0.36c-0.05-0.08-0.09-0.16-0.14-0.24c-0.02-0.04-0.04-0.08-0.06-0.11    c-0.12-0.2-0.24-0.39-0.37-0.58c-0.04-0.06-0.08-0.13-0.12-0.19c-0.01-0.01-0.01-0.02-0.02-0.03c-0.16-0.24-0.33-0.48-0.5-0.71    c-0.02-0.03-0.05-0.07-0.07-0.1c-0.02-0.03-0.05-0.06-0.07-0.09c-0.06-0.08-0.12-0.16-0.18-0.24c-0.1-0.13-0.21-0.26-0.31-0.39    c-0.04-0.05-0.08-0.1-0.12-0.14c-0.02-0.02-0.04-0.05-0.06-0.07c-0.04-0.05-0.08-0.09-0.12-0.14c-0.1-0.12-0.21-0.23-0.32-0.35    c-0.08-0.09-0.16-0.17-0.25-0.26c-0.01-0.02-0.03-0.03-0.04-0.05c-0.01-0.01-0.03-0.03-0.04-0.04c-0.11-0.12-0.23-0.23-0.35-0.34    c-0.12-0.12-0.24-0.23-0.37-0.34l-0.01-0.01c0,0-0.01-0.01-0.01-0.01c-0.12-0.11-0.24-0.21-0.36-0.32    c-0.13-0.11-0.26-0.21-0.39-0.32c-0.02-0.01-0.03-0.02-0.05-0.04c-0.02-0.01-0.04-0.03-0.06-0.04c-0.09-0.07-0.19-0.15-0.29-0.22    c-0.13-0.1-0.26-0.19-0.39-0.28c-0.04-0.03-0.07-0.05-0.11-0.07c-0.01-0.01-0.02-0.02-0.04-0.03c0,0-0.01,0-0.01-0.01    c-0.08-0.05-0.16-0.1-0.24-0.16c-0.13-0.08-0.26-0.17-0.4-0.24c-0.03-0.02-2.13-1.23-2.16-1.24l-11.85,6.42    c0,0,2.83,1.64,2.97,1.73c0.13,0.08,0.26,0.17,0.39,0.26c0.13,0.09,0.26,0.18,0.39,0.28c0.13,0.1,0.26,0.2,0.39,0.3    c0.05,0.04,0.11,0.09,0.16,0.13c0.21,0.17,0.41,0.34,0.61,0.52l0,0l0,0c0.2,0.18,0.4,0.37,0.59,0.56    c0.02,0.02,0.05,0.05,0.07,0.07c0.18,0.18,0.36,0.37,0.54,0.57c0.03,0.03,0.05,0.06,0.08,0.09c0.17,0.19,0.34,0.39,0.5,0.58    c0.03,0.04,0.06,0.07,0.09,0.11c0.16,0.2,0.32,0.4,0.47,0.61c0.08,0.11,0.15,0.22,0.23,0.32c0.09,0.13,0.19,0.26,0.27,0.4    c0.1,0.16,0.2,0.31,0.3,0.47c0.06,0.1,0.13,0.2,0.19,0.31c0.05,0.09,0.1,0.18,0.16,0.28c0.09,0.16,0.19,0.33,0.27,0.49    c0.02,0.04,0.05,0.09,0.07,0.13c0.12,0.23,0.23,0.46,0.34,0.69c0.01,0.02,0.02,0.04,0.03,0.06c0.11,0.25,0.22,0.49,0.32,0.74    c0.01,0.03,0.02,0.05,0.03,0.08c0.1,0.24,0.19,0.49,0.28,0.73c0.01,0.03,0.02,0.06,0.03,0.09c0.08,0.24,0.16,0.48,0.23,0.73    c0.01,0.04,0.02,0.07,0.03,0.11c0.07,0.24,0.13,0.48,0.19,0.73c0.01,0.04,0.02,0.07,0.03,0.11c0.06,0.24,0.11,0.49,0.15,0.73    c0.01,0.04,0.01,0.07,0.02,0.11c0.04,0.25,0.08,0.49,0.11,0.74c0,0.03,0.01,0.06,0.01,0.1c0.03,0.25,0.05,0.49,0.06,0.74    c0.01,0.12,0.01,0.25,0.02,0.37c0,0.15,0.01,0.29,0.01,0.44c0,0.15,0,0.3-0.01,0.45c-0.01,0.15-0.02,0.3-0.03,0.45    c-0.01,0.16-0.03,0.33-0.05,0.49c-0.02,0.13-0.03,0.25-0.05,0.37c0,0-0.04,0.25-0.11,0.67L634.7,594.31    c-0.19,1.2-4.86,8.91-3.81,8.29l11.2-9.5c2.37-2.01,3.95-4.8,4.44-7.87l40.2-248.46c0.19-1.2,0.49-3.01,0.49-3.01    c0.02-0.12,0.04-0.25,0.05-0.37c0.01-0.11,0.02-0.21,0.03-0.32c0-0.01,0-0.01,0-0.02c0-0.01,0-0.03,0-0.04    c0-0.04,0.01-0.07,0.01-0.11c0.01-0.15,0.02-0.3,0.03-0.45c0.01-0.12,0.01-0.24,0.01-0.36    C687.38,332.07,687.38,332.05,687.38,332.03z"/>
		<g>
			
				<linearGradient id="SVGID_1_" gradientUnits="userSpaceOnUse" x1="1684.4156" y1="603.4135" x2="1684.4156" y2="95.9956" gradientTransform="matrix(1 0 0 1 -1235.3481 0)">
				<stop offset="0" style="stop-color:#A8C4E4"/>
				<stop offset="0.0237" style="stop-color:#ADC7E6"/>
				<stop offset="0.1663" style="stop-color:#C9D9EE"/>
				<stop offset="0.3201" style="stop-color:#DFE7F5"/>
				<stop offset="0.4885" style="stop-color:#EFF3FA"/>
				<stop offset="0.6825" style="stop-color:#FAFBFD"/>
				<stop offset="0.9606" style="stop-color:#FFFFFF"/>
			</linearGradient>
			<path class="st5" d="M668.24,324.58c5.34,3.08,8.92,10.17,8.01,15.83l-41.57,256.9c-0.91,5.67-5.98,7.75-11.32,4.67L229.9,374.83     c-5.34-3.08-8.92-10.17-8.01-15.83l41.56-256.9c0.92-5.66,5.98-7.75,11.32-4.67L668.24,324.58z"/>
		</g>
		<path class="st6" d="M681.87,286.75L291.9,61.6h0c0,0-0.02-0.01-0.03-0.01l-0.58-0.34c0,0,0,0-0.01,0    c-0.44-0.25-0.97-0.56-1.03-0.59c-0.13-0.07-0.27-0.14-0.4-0.21c-0.14-0.07-0.27-0.13-0.41-0.19c-0.14-0.06-0.27-0.12-0.41-0.17    c-0.14-0.06-0.28-0.11-0.42-0.16c-0.14-0.05-0.28-0.1-0.42-0.14c-0.15-0.05-0.3-0.09-0.45-0.12c-0.01,0-0.02,0-0.03-0.01l0,0    c-0.01,0-0.03-0.01-0.04-0.01c-0.13-0.03-0.26-0.06-0.39-0.09c-0.07-0.01-0.13-0.02-0.2-0.03c-0.05-0.01-0.11-0.02-0.16-0.03    c-0.04-0.01-0.08-0.02-0.13-0.02c-0.16-0.02-0.32-0.04-0.47-0.05c-0.01,0-0.03,0-0.04,0l-0.01,0c-0.19-0.01-0.37-0.02-0.55-0.02    c-0.02,0-0.04,0-0.06,0c-0.08,0-0.17,0.01-0.25,0.01c-0.1,0-0.2,0.01-0.3,0.01c-0.03,0-0.05,0.01-0.08,0.01    c-0.14,0.01-0.27,0.04-0.4,0.06c-0.07,0.01-0.15,0.02-0.22,0.03c-0.02,0-0.03,0.01-0.05,0.01c-0.26,0.05-0.52,0.12-0.77,0.21    c-0.02,0.01-0.04,0.01-0.05,0.01c-0.03,0.01-0.05,0.03-0.08,0.04c-0.32,0.12-0.64,0.26-0.93,0.43l-11.45,6.65    c0.29-0.17,0.6-0.3,0.92-0.42c0.12-0.05,0.25-0.08,0.37-0.12c0.15-0.05,0.3-0.09,0.45-0.12c0.18-0.04,0.37-0.07,0.56-0.1    c0.07-0.01,0.14-0.02,0.21-0.03c0.26-0.03,0.53-0.04,0.8-0.03c0.05,0,0.1,0,0.15,0c0.28,0.01,0.56,0.03,0.84,0.07    c0.02,0,0.04,0.01,0.06,0.01c0.3,0.04,0.6,0.1,0.91,0.18c0.02,0.01,0.05,0.01,0.07,0.02c0.3,0.08,0.6,0.18,0.91,0.29    c0.03,0.01,0.06,0.02,0.09,0.03c0.32,0.12,0.65,0.26,0.98,0.43c0.13,0.07,0.27,0.13,0.4,0.21c0.1,0.06,0.21,0.11,0.31,0.17    l2.16,1.25l0,0l390.58,225.5c0.45,0.26,1,0.26,1.45,0l8.57-4.98C682.84,288.69,682.83,287.3,681.87,286.75z M288.05,62.29    L288.05,62.29L288.05,62.29L288.05,62.29z"/>
		<path class="st3" d="M692.18,302.1c0-0.01,0-0.03,0-0.04c0-0.14,0-0.29-0.01-0.44c0-0.15-0.01-0.29-0.02-0.44    c0-0.02,0-0.04,0-0.06c0-0.02,0-0.04,0-0.06c-0.01-0.1-0.01-0.2-0.02-0.31c-0.01-0.14-0.03-0.29-0.05-0.43    c-0.01-0.07-0.02-0.14-0.03-0.2c0-0.03-0.01-0.06-0.01-0.09c-0.01-0.05-0.01-0.09-0.02-0.14c-0.02-0.14-0.05-0.29-0.07-0.43    c-0.03-0.14-0.05-0.27-0.08-0.41l0-0.01c0-0.01,0-0.01,0-0.02c-0.03-0.15-0.07-0.29-0.1-0.43c-0.04-0.14-0.07-0.29-0.11-0.43    c-0.01-0.04-0.02-0.08-0.03-0.11c-0.01-0.03-0.02-0.05-0.02-0.08c-0.02-0.08-0.04-0.15-0.07-0.23c-0.04-0.14-0.09-0.27-0.13-0.41    c-0.03-0.1-0.07-0.21-0.11-0.31c-0.01-0.01-0.01-0.03-0.02-0.04c-0.01-0.02-0.01-0.03-0.02-0.05c-0.05-0.13-0.1-0.26-0.15-0.39    c-0.05-0.12-0.1-0.25-0.15-0.37c-0.02-0.05-0.04-0.1-0.07-0.16c-0.01-0.02-0.02-0.04-0.03-0.07c-0.02-0.05-0.04-0.1-0.06-0.15    c-0.06-0.13-0.11-0.26-0.17-0.38c-0.06-0.13-0.12-0.25-0.18-0.38c-0.01-0.01-0.01-0.02-0.02-0.04c-0.01-0.02-0.02-0.04-0.03-0.06    c-0.07-0.13-0.13-0.27-0.21-0.4c-0.07-0.12-0.14-0.24-0.21-0.36c-0.05-0.08-0.09-0.16-0.14-0.24c-0.02-0.04-0.04-0.08-0.06-0.11    c-0.12-0.2-0.24-0.39-0.37-0.58c-0.04-0.06-0.08-0.13-0.12-0.19c-0.01-0.01-0.01-0.02-0.02-0.03c-0.16-0.24-0.33-0.48-0.5-0.71    c-0.02-0.03-0.05-0.07-0.07-0.1c-0.02-0.03-0.05-0.06-0.07-0.09c-0.06-0.08-0.12-0.16-0.18-0.24c-0.1-0.13-0.21-0.26-0.31-0.39    c-0.04-0.05-0.08-0.1-0.12-0.14c-0.02-0.02-0.04-0.05-0.06-0.07c-0.04-0.05-0.08-0.09-0.12-0.14c-0.1-0.12-0.21-0.23-0.31-0.35    c-0.08-0.09-0.16-0.17-0.25-0.26c-0.01-0.02-0.03-0.03-0.04-0.05c-0.01-0.01-0.03-0.03-0.04-0.04c-0.11-0.12-0.23-0.23-0.35-0.34    c-0.12-0.12-0.24-0.23-0.37-0.34l-0.01,0l-0.01-0.01c-0.12-0.11-0.24-0.21-0.36-0.32c-0.13-0.11-0.26-0.21-0.39-0.32    c-0.02-0.01-0.03-0.02-0.05-0.04c-0.02-0.01-0.04-0.03-0.06-0.04c-0.09-0.07-0.19-0.15-0.29-0.22c-0.13-0.1-0.26-0.19-0.39-0.28    c-0.04-0.03-0.07-0.05-0.11-0.07c-0.01-0.01-0.02-0.02-0.04-0.03c0,0-0.01,0-0.01-0.01c-0.08-0.05-0.16-0.11-0.23-0.16    c-0.13-0.08-0.27-0.17-0.4-0.24c-0.03-0.02-9.5-5.48-9.53-5.5l-11.69,7.06c0,0,10.04,5.25,10.17,5.34    c0.13,0.08,0.26,0.17,0.39,0.26c0.13,0.09,0.26,0.18,0.39,0.28c0.13,0.1,0.26,0.2,0.39,0.3c0.05,0.04,0.11,0.09,0.16,0.13    c0.21,0.17,0.41,0.34,0.61,0.52l0,0l0,0c0.2,0.18,0.4,0.37,0.59,0.56c0.02,0.02,0.05,0.05,0.07,0.07    c0.18,0.18,0.36,0.37,0.54,0.57c0.03,0.03,0.05,0.06,0.08,0.09c0.17,0.19,0.34,0.39,0.5,0.59c0.03,0.04,0.06,0.07,0.09,0.11    c0.16,0.2,0.32,0.4,0.47,0.61c0.08,0.11,0.15,0.22,0.23,0.32c0.09,0.13,0.19,0.26,0.27,0.4c0.1,0.16,0.2,0.31,0.3,0.47    c0.06,0.1,0.13,0.2,0.19,0.31c0.05,0.09,0.1,0.18,0.16,0.28c0.09,0.16,0.19,0.33,0.27,0.49c0.02,0.04,0.05,0.09,0.07,0.13    c0.12,0.23,0.23,0.46,0.34,0.69c0.01,0.02,0.02,0.04,0.03,0.06c0.11,0.25,0.22,0.49,0.32,0.74c0.01,0.03,0.02,0.05,0.03,0.08    c0.1,0.24,0.19,0.49,0.28,0.73c0.01,0.03,0.02,0.06,0.03,0.09c0.08,0.24,0.16,0.48,0.23,0.73c0.01,0.04,0.02,0.07,0.03,0.11    c0.07,0.24,0.13,0.48,0.19,0.73c0.01,0.04,0.02,0.07,0.03,0.11c0.06,0.24,0.11,0.49,0.15,0.73c0.01,0.04,0.01,0.07,0.02,0.11    c0.04,0.25,0.08,0.49,0.11,0.74c0,0.03,0.01,0.06,0.01,0.1c0.03,0.25,0.05,0.49,0.06,0.74c0.01,0.12,0.01,0.25,0.02,0.37    c0,0.15,0.01,0.29,0.01,0.44c0,0.15,0,0.3-0.01,0.45c-0.01,0.15-0.02,0.3-0.03,0.45c-0.01,0.16-0.03,0.33-0.05,0.49    c-0.02,0.13-0.03,0.25-0.05,0.37c0,0-0.04,0.25-0.11,0.67l-40.97,253.21c-0.19,1.2-4.86,8.91-3.81,8.29l11.2-9.5    c2.37-2.01,3.95-4.8,4.44-7.87l40.2-248.46c0.19-1.2,0.49-3.01,0.49-3.01c0.02-0.12,0.04-0.25,0.05-0.37    c0.01-0.11,0.02-0.21,0.03-0.32c0-0.01,0-0.01,0-0.02c0-0.01,0-0.03,0-0.04c0-0.04,0.01-0.07,0.01-0.11    c0.01-0.15,0.02-0.3,0.03-0.45c0.01-0.12,0.01-0.24,0.01-0.36C692.18,302.13,692.18,302.12,692.18,302.1z"/>
		<g>
			<path class="st7" d="M672.58,294.65c5.34,3.08,8.92,10.17,8.01,15.83l-41.57,256.9c-0.91,5.67-5.98,7.75-11.32,4.67     L234.24,344.89c-5.34-3.08-8.92-10.17-8.01-15.83l41.56-256.9c0.92-5.66,5.98-7.75,11.32-4.67L672.58,294.65z"/>
		</g>
		<path class="st6" d="M688.87,244L298.9,18.85l0,0c0,0-0.02-0.01-0.03-0.01l-0.58-0.34l-0.01,0c-0.44-0.25-0.97-0.56-1.03-0.59    c-0.13-0.07-0.27-0.14-0.4-0.21c-0.14-0.07-0.27-0.13-0.41-0.19c-0.14-0.06-0.27-0.12-0.41-0.17c-0.14-0.06-0.28-0.11-0.42-0.16    c-0.14-0.05-0.28-0.1-0.42-0.14c-0.15-0.05-0.3-0.09-0.45-0.12c-0.01,0-0.02,0-0.03-0.01l0,0c-0.01,0-0.03-0.01-0.04-0.01    c-0.13-0.03-0.26-0.06-0.39-0.09c-0.07-0.01-0.13-0.02-0.2-0.03c-0.05-0.01-0.11-0.02-0.16-0.03c-0.04-0.01-0.08-0.02-0.13-0.02    c-0.16-0.02-0.32-0.04-0.47-0.05c-0.01,0-0.03,0-0.04,0l-0.01,0c-0.19-0.01-0.37-0.02-0.55-0.02c-0.02,0-0.04,0-0.06,0    c-0.08,0-0.17,0.01-0.25,0.01c-0.1,0-0.2,0.01-0.3,0.01c-0.03,0-0.05,0.01-0.08,0.01c-0.14,0.01-0.27,0.04-0.4,0.06    c-0.07,0.01-0.15,0.02-0.22,0.03c-0.02,0-0.03,0.01-0.05,0.01c-0.26,0.05-0.52,0.12-0.77,0.21c-0.02,0.01-0.04,0.01-0.05,0.01    c-0.03,0.01-0.05,0.03-0.08,0.04c-0.32,0.12-0.64,0.26-0.93,0.43l-11.45,6.65c0.29-0.17,0.6-0.3,0.92-0.42    c0.12-0.05,0.25-0.08,0.37-0.12c0.15-0.05,0.3-0.09,0.45-0.12c0.18-0.04,0.37-0.07,0.56-0.1c0.07-0.01,0.14-0.02,0.21-0.03    c0.26-0.03,0.53-0.04,0.8-0.03c0.05,0,0.1,0,0.15,0c0.28,0.01,0.56,0.03,0.84,0.07c0.02,0,0.04,0.01,0.06,0.01    c0.3,0.04,0.6,0.1,0.91,0.18c0.02,0.01,0.05,0.01,0.07,0.02c0.3,0.08,0.6,0.18,0.91,0.29c0.03,0.01,0.06,0.02,0.09,0.03    c0.32,0.12,0.65,0.26,0.98,0.43c0.13,0.07,0.27,0.13,0.4,0.21c0.1,0.06,0.21,0.11,0.31,0.17l2.16,1.25l0,0l390.58,225.5    c0.45,0.26,1,0.26,1.45,0l8.57-4.98C689.83,245.94,689.83,244.55,688.87,244z M295.05,19.54L295.05,19.54L295.05,19.54    L295.05,19.54z"/>
		<path class="st3" d="M699.18,259.35c0-0.01,0-0.03,0-0.04c0-0.14,0-0.29-0.01-0.44c0-0.15-0.01-0.29-0.02-0.44    c0-0.02,0-0.04,0-0.06c0-0.02,0-0.04,0-0.06c-0.01-0.1-0.01-0.2-0.02-0.31c-0.01-0.14-0.03-0.29-0.05-0.43    c-0.01-0.07-0.02-0.14-0.03-0.2c0-0.03-0.01-0.06-0.01-0.09c-0.01-0.05-0.01-0.09-0.02-0.14c-0.02-0.14-0.05-0.29-0.07-0.43    c-0.03-0.14-0.05-0.27-0.08-0.41c0-0.01,0-0.01,0-0.02l0-0.01c-0.03-0.14-0.07-0.29-0.1-0.43c-0.04-0.14-0.07-0.29-0.11-0.43    c-0.01-0.04-0.02-0.08-0.03-0.11c-0.01-0.03-0.02-0.05-0.02-0.08c-0.02-0.08-0.04-0.15-0.07-0.23c-0.04-0.14-0.09-0.27-0.13-0.41    c-0.03-0.1-0.07-0.21-0.11-0.31c-0.01-0.01-0.01-0.03-0.02-0.04c-0.01-0.02-0.01-0.03-0.02-0.05c-0.05-0.13-0.1-0.26-0.15-0.39    c-0.05-0.12-0.1-0.25-0.15-0.37c-0.02-0.05-0.04-0.1-0.07-0.16c-0.01-0.02-0.02-0.04-0.03-0.07c-0.02-0.05-0.04-0.1-0.06-0.15    c-0.06-0.13-0.11-0.26-0.17-0.38c-0.06-0.13-0.12-0.25-0.18-0.38c-0.01-0.01-0.01-0.02-0.02-0.04c-0.01-0.02-0.02-0.04-0.03-0.06    c-0.07-0.13-0.13-0.27-0.21-0.4c-0.07-0.12-0.14-0.24-0.21-0.36c-0.05-0.08-0.09-0.16-0.14-0.24c-0.02-0.04-0.04-0.08-0.06-0.11    c-0.12-0.2-0.24-0.39-0.37-0.58c-0.04-0.06-0.08-0.13-0.12-0.19c-0.01-0.01-0.01-0.02-0.02-0.03c-0.16-0.24-0.33-0.48-0.5-0.71    c-0.02-0.03-0.05-0.07-0.07-0.1c-0.02-0.03-0.05-0.06-0.07-0.09c-0.06-0.08-0.12-0.16-0.18-0.24c-0.1-0.13-0.21-0.26-0.31-0.39    c-0.04-0.05-0.08-0.1-0.12-0.14c-0.02-0.02-0.04-0.05-0.06-0.07c-0.04-0.05-0.08-0.09-0.12-0.14c-0.1-0.12-0.21-0.23-0.32-0.35    c-0.08-0.09-0.16-0.17-0.25-0.26c-0.01-0.02-0.03-0.03-0.04-0.05c-0.01-0.01-0.03-0.03-0.04-0.04c-0.11-0.12-0.23-0.23-0.35-0.34    c-0.12-0.12-0.24-0.23-0.37-0.34l-0.01,0c0,0-0.01-0.01-0.01-0.01c-0.12-0.11-0.24-0.21-0.36-0.32c-0.13-0.11-0.26-0.21-0.39-0.32    c-0.02-0.01-0.03-0.02-0.05-0.04c-0.02-0.01-0.04-0.03-0.06-0.04c-0.09-0.07-0.19-0.15-0.29-0.22c-0.13-0.1-0.26-0.19-0.39-0.28    c-0.04-0.03-0.07-0.05-0.11-0.07c-0.01-0.01-0.02-0.02-0.04-0.03c0,0-0.01,0-0.01-0.01c-0.08-0.05-0.16-0.11-0.24-0.16    c-0.13-0.08-0.27-0.17-0.4-0.24c-0.03-0.02-9.5-5.48-9.53-5.5l-11.69,7.06c0,0,10.04,5.25,10.17,5.34    c0.13,0.08,0.26,0.17,0.39,0.26c0.13,0.09,0.26,0.18,0.39,0.28c0.13,0.1,0.26,0.2,0.39,0.3c0.05,0.04,0.11,0.09,0.16,0.13    c0.21,0.17,0.41,0.34,0.61,0.52l0,0l0,0c0.2,0.18,0.4,0.37,0.59,0.56c0.02,0.02,0.05,0.05,0.07,0.07    c0.18,0.18,0.36,0.37,0.54,0.57c0.03,0.03,0.05,0.06,0.08,0.09c0.17,0.19,0.34,0.39,0.5,0.58c0.03,0.04,0.06,0.07,0.09,0.11    c0.16,0.2,0.32,0.4,0.47,0.61c0.08,0.11,0.15,0.22,0.23,0.32c0.09,0.13,0.19,0.26,0.27,0.4c0.1,0.16,0.2,0.31,0.3,0.47    c0.06,0.1,0.13,0.2,0.19,0.31c0.05,0.09,0.1,0.18,0.16,0.28c0.09,0.16,0.19,0.33,0.27,0.49c0.02,0.04,0.05,0.09,0.07,0.13    c0.12,0.23,0.23,0.46,0.34,0.69c0.01,0.02,0.02,0.04,0.03,0.06c0.11,0.25,0.22,0.49,0.32,0.74c0.01,0.03,0.02,0.05,0.03,0.08    c0.1,0.24,0.19,0.49,0.28,0.73c0.01,0.03,0.02,0.06,0.03,0.09c0.08,0.24,0.16,0.48,0.23,0.73c0.01,0.04,0.02,0.07,0.03,0.11    c0.07,0.24,0.13,0.48,0.19,0.73c0.01,0.04,0.02,0.07,0.03,0.11c0.06,0.24,0.11,0.49,0.15,0.73c0.01,0.04,0.01,0.07,0.02,0.11    c0.04,0.25,0.08,0.49,0.11,0.74c0,0.03,0.01,0.06,0.01,0.1c0.03,0.25,0.05,0.49,0.06,0.74c0.01,0.12,0.01,0.25,0.02,0.37    c0,0.15,0.01,0.29,0.01,0.44c0,0.15,0,0.3-0.01,0.45c-0.01,0.15-0.02,0.3-0.03,0.45c-0.01,0.16-0.03,0.33-0.05,0.49    c-0.02,0.13-0.03,0.25-0.05,0.37c0,0-0.04,0.25-0.11,0.67l-40.97,253.21c-0.19,1.2-4.86,8.91-3.81,8.29l11.2-9.5    c2.37-2.01,3.95-4.8,4.44-7.87l40.2-248.46c0.19-1.2,0.49-3.01,0.49-3.01c0.02-0.12,0.04-0.25,0.05-0.37    c0.01-0.11,0.02-0.21,0.03-0.32c0-0.01,0-0.01,0-0.02c0-0.01,0-0.03,0-0.04c0-0.04,0.01-0.07,0.01-0.11    c0.01-0.15,0.02-0.3,0.03-0.45c0.01-0.12,0.01-0.24,0.01-0.36C699.18,259.38,699.18,259.37,699.18,259.35z"/>
		<g>
			<g>
				<path class="st7" d="M679.58,251.9c5.34,3.08,8.92,10.17,8.01,15.83l-41.57,256.9c-0.91,5.67-5.98,7.75-11.32,4.67      L241.24,302.14c-5.34-3.08-8.92-10.17-8.01-15.83l41.56-256.9c0.92-5.66,5.98-7.75,11.32-4.67L679.58,251.9z"/>
			</g>
		</g>
		<g>
			<g>
				<path class="st8" d="M658.53,311.18c5.06,2.87,8.5,9.04,7.67,13.79L628.6,540.5c-0.82,4.75-5.6,6.28-10.67,3.41L244.74,332.49      c-5.06-2.87-8.5-9.04-7.67-13.79l37.59-215.53c0.83-4.75,5.6-6.28,10.67-3.41L658.53,311.18z"/>
			</g>
		</g>
		<path class="st9" d="M479.74,198.07c0,2.47-1.75,3.47-3.9,2.23s-3.9-4.26-3.9-6.73c0-2.47,1.75-3.47,3.9-2.23    C478,192.58,479.75,195.6,479.74,198.07z"/>
		<g>
			<g>
				<path class="st8" d="M666.02,267.85c5.06,2.87,8.5,9.04,7.67,13.79l-37.6,215.53c-0.82,4.75-5.6,6.28-10.67,3.41L252.23,289.17      c-5.06-2.87-8.5-9.04-7.67-13.79l37.59-215.53c0.83-4.75,5.6-6.28,10.67-3.41L666.02,267.85z"/>
			</g>
		</g>
		<path class="st9" d="M487.23,154.75c0,2.47-1.75,3.47-3.9,2.23s-3.9-4.26-3.9-6.73c0-2.47,1.75-3.47,3.9-2.23    C485.48,149.26,487.23,152.27,487.23,154.75z"/>
	</g>
	<polygon class="st9" points="504.11,441.03 466.41,419.26 477.21,355.23 514.91,376.99  "/>
	<polygon class="st10" points="550.31,467.7 512.61,445.94 519.68,404.06 557.37,425.83  "/>
	<polygon class="st11" points="597.93,495.19 560.23,473.43 574.39,389.48 612.09,411.24  "/>
	<path class="st12" d="M534.83,292.37l-26.18-14.97c-2.34-1.34-4-5.19-3.69-8.55l0,0c0.31-3.36,2.49-5.02,4.83-3.68l26.18,14.97   c2.34,1.34,4,5.19,3.69,8.55l0,0C539.34,292.06,537.17,293.71,534.83,292.37z"/>
	<path class="st12" d="M528.43,323.24l-26.18-14.97c-2.34-1.34-4-5.19-3.69-8.55l0,0c0.31-3.36,2.49-5.02,4.83-3.68l26.18,14.97   c2.34,1.34,4,5.19,3.69,8.55l0,0C532.94,322.93,530.77,324.58,528.43,323.24z"/>
	<path class="st12" d="M558.04,305.68l-26.18-14.97c-2.34-1.34-4-5.19-3.69-8.55l0,0c0.31-3.36,2.49-5.02,4.83-3.68l26.18,14.97   c2.34,1.34,4,5.19,3.69,8.55l0,0C562.55,305.36,560.38,307.02,558.04,305.68z"/>
	<path class="st12" d="M572.17,349.27l-26.18-14.97c-2.34-1.34-4-5.19-3.69-8.55l0,0c0.31-3.36,2.49-5.02,4.83-3.68l26.18,14.97   c2.34,1.34,4,5.19,3.69,8.55v0C576.69,348.95,574.51,350.61,572.17,349.27z"/>
	<path class="st12" d="M565.31,376.99l-26.18-14.97c-2.34-1.34-4-5.19-3.69-8.55l0,0c0.31-3.36,2.49-5.02,4.83-3.68l26.18,14.97   c2.34,1.34,4,5.19,3.69,8.55l0,0C569.82,376.67,567.65,378.32,565.31,376.99z"/>
	<path class="st12" d="M622.32,344.43l-26.18-14.97c-2.34-1.34-4-5.19-3.69-8.55l0,0c0.31-3.36,2.49-5.02,4.83-3.68l26.18,14.97   c2.34,1.34,4,5.19,3.69,8.55l0,0C626.83,344.11,624.66,345.77,622.32,344.43z"/>
	<path class="st12" d="M596.02,329.1l-26.18-14.97c-2.34-1.34-4-5.19-3.69-8.55l0,0c0.31-3.36,2.49-5.02,4.83-3.68l26.18,14.97   c2.34,1.34,4,5.19,3.69,8.55l0,0C600.53,328.79,598.36,330.44,596.02,329.1z"/>
	<path class="st12" d="M576.73,317.33l-26.18-14.97c-2.34-1.34-4-5.19-3.69-8.55l0,0c0.31-3.36,2.49-5.02,4.83-3.68l26.18,14.97   c2.34,1.34,4,5.19,3.69,8.55l0,0C581.25,317.02,579.08,318.67,576.73,317.33z"/>
	<path class="st12" d="M615.92,375.3l-26.18-14.97c-2.34-1.34-4-5.19-3.69-8.55l0,0c0.31-3.36,2.49-5.02,4.83-3.68l26.18,14.97   c2.34,1.34,4,5.19,3.69,8.55l0,0C620.43,374.98,618.26,376.64,615.92,375.3z"/>
	<path class="st13" d="M614.89,282.81l-93.64-54.06c-3.06-1.77-6.45-0.52-7.53,2.78c-1.08,3.3,0.54,7.45,3.61,9.21l93.64,54.06   c3.06,1.77,6.45,0.52,7.53-2.78C619.58,288.72,617.95,284.58,614.89,282.81z"/>
	<path class="st13" d="M634.23,293.99l-93.64-54.06c-3.06-1.77-6.45-0.52-7.53,2.78c-1.08,3.3,0.54,7.45,3.61,9.21l93.64,54.06   c3.06,1.77,6.45,0.52,7.53-2.78C638.91,299.91,637.29,295.76,634.23,293.99z"/>
	<path class="st9" d="M298.73,84.09l-38.77,219.29l187.82,109.15l38.77-219.29L298.73,84.09z"/>
	<path class="st11" d="M402.5,255.41l-20.92-12.02c-0.18-0.14-0.37-0.27-0.56-0.38l-29.07-16.7c-0.22-0.12-0.43-0.22-0.64-0.3   l-18.27-10.5c-2.6-1.49-5.03,0.35-5.39,4.1c-0.37,3.75,1.46,8.04,4.06,9.54l29.07,16.7c0.22,0.12,0.43,0.22,0.64,0.3l10.13,5.82   c0.18,0.14,0.37,0.27,0.56,0.38l29.07,16.7c2.6,1.49,5.03-0.35,5.39-4.1C406.93,261.2,405.1,256.91,402.5,255.41z"/>
	<path class="st12" d="M413.34,321.74l-20.92-12.02c-0.18-0.14-0.37-0.27-0.56-0.38l-29.07-16.7c-0.22-0.12-0.43-0.22-0.64-0.3   l-18.27-10.5c-2.6-1.49-5.03,0.35-5.39,4.1c-0.37,3.75,1.46,8.04,4.06,9.54l29.07,16.7c0.22,0.12,0.43,0.22,0.64,0.3l10.13,5.82   c0.18,0.14,0.37,0.27,0.56,0.38l29.07,16.7c2.6,1.49,5.03-0.35,5.39-4.1S415.94,323.23,413.34,321.74z"/>
	<path class="st14" d="M374.54,282.63l-29.07-16.7c-2.6-1.49-4.43-5.79-4.06-9.54l0,0c0.37-3.75,2.79-5.6,5.39-4.1l29.07,16.7   c2.6,1.49,4.43,5.79,4.06,9.54l0,0C379.56,282.27,377.14,284.12,374.54,282.63z"/>
	<path class="st12" d="M420.35,308.1l-29.07-16.7c-2.6-1.49-4.43-5.79-4.06-9.54l0,0c0.37-3.75,2.79-5.6,5.39-4.1l29.07,16.7   c2.6,1.49,4.43,5.79,4.06,9.54l0,0C425.37,307.74,422.95,309.59,420.35,308.1z"/>
	<polygon class="st7" points="298.73,84.09 486.55,193.25 479.42,230.23 291.9,122.72  "/>
	<path class="st11" d="M323.74,215.43c0.46-2.59-0.76-5.19-3.04-6.5l-11.48-6.59c-2.6-1.49-5.03,0.35-5.39,4.1   c-0.37,3.75,1.46,8.04,4.06,9.54l6.58,3.78C318.23,221.92,322.98,219.69,323.74,215.43L323.74,215.43z"/>
	
		<ellipse transform="matrix(0.8633 -0.5047 0.5047 0.8633 -14.5935 174.1877)" class="st9" cx="314.25" cy="114.03" rx="6.62" ry="11.46"/>
	
		<ellipse transform="matrix(0.8633 -0.5047 0.5047 0.8633 -18.6516 187.7006)" class="st14" cx="337.16" cy="128.28" rx="6.62" ry="11.46"/>
	
		<ellipse transform="matrix(0.8633 -0.5047 0.5047 0.8633 -23.2156 201.6527)" class="st11" cx="360.64" cy="143.68" rx="6.62" ry="11.46"/>
	<g>
		<path class="st7" d="M302.9,174.53c0.6-2.99,1.34-4.34,1.88-6.99c0.3-1.47-0.28-3.48-3.03-4.94l0.73-3.62    c2.79,1.29,3.99,0.18,4.29-1.29c0.53-2.65,0.42-4.42,1.03-7.41c0.92-4.55,2.91-5.13,6.66-3.27l2.68,1.34l-0.66,3.29l-0.81-0.4    c-1.75-0.87-2.38-0.49-2.85,1.83c-0.46,2.27-0.7,4.38-1.21,6.95c-0.64,3.2-1.91,3.91-4.14,3.36l-0.03,0.17    c2.03,1.56,2.8,3.29,2.16,6.5c-0.52,2.57-1.09,4.51-1.55,6.78c-0.47,2.32-0.08,3.2,1.66,4.07l0.81,0.4l-0.66,3.29l-2.68-1.34    C303.4,181.36,301.98,179.08,302.9,174.53z"/>
	</g>
	<g>
		<path class="st7" d="M287.7,275.31c-0.52,2.94-1.25,4.21-1.71,6.82c-0.26,1.45,0.42,3.56,3.35,5.43l-0.63,3.57    c-2.96-1.7-4.18-0.74-4.44,0.71c-0.46,2.61-0.29,4.42-0.81,7.37c-0.8,4.48-2.86,4.79-6.84,2.38l-2.85-1.73l0.58-3.23l0.86,0.52    c1.86,1.13,2.51,0.83,2.92-1.45c0.4-2.24,0.57-4.34,1.02-6.87c0.56-3.15,1.86-3.7,4.22-2.82l0.03-0.17    c-2.18-1.87-3.05-3.73-2.49-6.88c0.45-2.53,0.98-4.41,1.38-6.65c0.41-2.28-0.03-3.23-1.88-4.36l-0.86-0.52l0.58-3.23l2.85,1.73    C286.94,268.33,288.5,270.83,287.7,275.31z"/>
	</g>
	<path class="st10" d="M494.68,316.12l-63.53-35.76c-5.44-3.07-8.95-11.29-7.83-18.37L434,194.49c1.12-7.08,6.44-10.33,11.89-7.27   l63.53,35.76c5.44,3.06,8.95,11.29,7.83,18.37l-10.68,67.51C505.45,315.94,500.12,319.19,494.68,316.12z"/>
	<g>
		<g>
			<polygon class="st9" points="449.27,264.28 435.4,235.95 456.99,225.75 459.89,231.81 445.67,238.53 456.56,260.78    "/>
		</g>
		<g>
			<polygon class="st9" points="482.84,281.59 479.94,275.53 493.96,268.91 482.93,246.36 490.21,242.86 504.22,271.49    "/>
		</g>
		<g>
			<polygon class="st9" points="463.74,278.09 456.51,276.27 477.39,230.95 484.62,232.77    "/>
		</g>
	</g>
</g>
<g>
	
		<ellipse transform="matrix(0.9998 -0.0177 0.0177 0.9998 -10.1901 8.5637)" class="st0" cx="477.93" cy="579.04" rx="34.94" ry="17.36"/>
	<path class="st15" d="M470.02,387.4c0,0,13.54,5.69,37.74-26.94c4.9-6.61,11.22-30.08,11.22-30.08l-5.83-2.6   c0,0-8.79,20.02-15.99,26.47c-9.66,8.66-36.14,20.32-37.28,24.7C458.73,383.31,470.02,387.4,470.02,387.4z"/>
	<path class="st16" d="M452.29,567.46l7.6-0.95c5.08-2.3,7.46-4.03,9.72-2.73l0.64,0.37c2.26,1.31,1.98,3.61-0.64,5.12l-11.17,8.87   c-2.61,1.51-6.14,1.03-8.22-0.8c0,0-1.25-1.13-0.36-5.87C450.37,568.77,450.2,568.67,452.29,567.46z"/>
	<path class="st17" d="M461.27,567.79c-0.61,5.25-10.23,5.25-10.23,1.25l5.33-121.23l32.1-9.05L461.27,567.79z"/>
	<path class="st16" d="M484.41,579.04l7.52,1.42c5.55-0.64,8.34-1.56,10.09,0.38l0.5,0.55c1.76,1.94,0.78,4.04-2.17,4.68   l-13.35,5.03c-2.95,0.64-6.16-0.9-7.59-3.28c0,0-0.84-1.46,1.46-5.7C482.19,579.7,482.05,579.55,484.41,579.04z"/>
	<path class="st17" d="M490.56,582.26c-1.68,4.24-9.03,3.31-8.9-0.17c3.43-42.01-4.47-81.68-14.66-120.28l30.83-3.33   C499.02,503.65,498.62,542.36,490.56,582.26z"/>
	<path class="st16" d="M495.91,447.54l10.72,58.84c0,0-26.64,26.4-57.11,0l3.43-55.25L495.91,447.54z"/>
	<path class="st17" d="M485.68,369.18c-2.29,7.99-8.23,10.24-13.27,5.02c-5.03-5.21-7.26-15.92-4.97-23.91   c2.29-7.99,8.23-10.24,13.27-5.02C485.75,350.49,487.98,361.19,485.68,369.18z"/>
	<path class="st17" d="M494.1,366.65c-2.29,7.99-10.86,10.88-15.89,5.66c-5.03-5.21-7.26-15.92-4.97-23.91   c2.29-7.99,8.23-10.24,13.27-5.02C491.55,348.6,496.39,358.66,494.1,366.65z"/>
	<path class="st17" d="M474.73,389.7l-0.86-0.19c-2.89-0.65-4.73-3.54-4.09-6.43l3.64-16.31c0.65-2.89,3.54-4.73,6.43-4.09   l0.86,0.19c2.89,0.65,4.73,3.54,4.09,6.43l-1.19,16.18C482.96,388.38,477.62,390.34,474.73,389.7z"/>
	<path class="st18" d="M467.89,367.79c0,0-0.99,5.54,8.67,6.07c7.73,0.43,5.44-13.56,13.1-14.81c8.44-1.38,9.96-11.8,6.64-15.8   c-3.32-4-12.61-6.09-19.34-3.12C470.24,343.1,456.11,345.27,467.89,367.79z"/>
	<path class="st17" d="M489.7,363.39c-0.56,1.94-2.58,3.07-4.53,2.51c-1.94-0.56-3.07-2.58-2.51-4.53c0.56-1.94,2.58-3.07,4.53-2.51   C489.14,359.42,490.26,361.45,489.7,363.39z"/>
	<path class="st11" d="M452.81,450.51c2.73-14.97-0.21-26.8,0.03-42.71c0-28.61-1.37-35.59,13.75-31.24l4.26,1.13   c2.05,0.54,4.03,1.31,5.92,2.28c19.94,10.27,25.26,13.44,24.39,25.36c0.09,19.63-9.05,23.63-4.19,40.82   C492.86,459.73,457.37,460.22,452.81,450.51z"/>
	<path class="st19" d="M484.38,374.94l-0.87-2c0,0,1.54,1.55,4.48,1.17C488,374.1,486.27,375.09,484.38,374.94z"/>
	<ellipse class="st16" cx="468.63" cy="352.09" rx="6.97" ry="8.09"/>
	<path class="st18" d="M468.45,349.57c0.33-4.15-5.32-5.97-7.54-2.45c-0.72,1.15-1.37,2.76-1.87,4.97   c-2.81,12.45-23.78,10.64-13.49,32.54c0,0-9.36,14.37,8.03,20.42c8.9,3.1,8.7-19.82,8.7-19.82s3.55-10.54,6.98-18.81   c1.61-3.88,1.76-8.29,0.05-12.12C468.61,352.73,468.33,351.15,468.45,349.57z"/>
	<path class="st16" d="M470.73,375.73c-1.66-0.4-3.18,1.06-2.9,2.74c0.31,1.87,1.45,4.1,4.86,5.25c4.72,1.6,9.9,0.74,12.39,0.15   c0.59-0.14,0.71-0.92,0.19-1.24C482.47,380.88,475.73,376.93,470.73,375.73z"/>
	<polygon class="st9" points="529.36,406.28 506.63,393.11 520.01,354.01 542.73,367.17  "/>
	<path class="st11" d="M483.16,401.13c0,0,19.55,47.55,40.89,24.64c21.34-22.91,13.84-39.06,13.84-39.06l-2.86-0.78   c0,0-8.68,28.76-17.92,25.92s-21.79-20.6-26.23-21.44C486.44,389.58,483.16,401.13,483.16,401.13z"/>
	<path class="st17" d="M513.83,329.28l1.59,0.8c2.06,1.03,4.59,0.19,5.63-1.87l2.44-4.86c1.03-2.06,0.19-4.59-1.87-5.63l-1.59-0.8   c-2.06-1.03-4.59-0.19-5.63,1.87l-2.44,4.86C510.92,325.71,511.77,328.24,513.83,329.28z"/>
	<path class="st17" d="M537.38,390.04L537.38,390.04c-2.05,0-3.72-1.67-3.72-3.72v-3.81c0-2.05,1.67-3.72,3.72-3.72l0,0   c2.05,0,3.72,1.67,3.72,3.72v3.81C541.11,388.37,539.43,390.04,537.38,390.04z"/>
	<g>
		<path class="st11" d="M524.45,368.28l-3.89-2.24c-0.79-0.46-1.2-1.56-0.93-2.47l0,0c0.28-0.91,1.14-1.27,1.93-0.82l3.89,2.24    c0.79,0.46,1.2,1.56,0.93,2.47l0,0C526.11,368.37,525.24,368.74,524.45,368.28z"/>
		<path class="st12" d="M528.07,377.08l-5.86-3.38c-0.62-0.36-0.95-1.23-0.73-1.95l0,0c0.22-0.72,0.9-1.01,1.52-0.65l5.86,3.38    c0.62,0.36,0.95,1.23,0.73,1.95l0,0C529.38,377.15,528.7,377.44,528.07,377.08z"/>
		<path class="st12" d="M531.17,385.87l-10.77-6.22c-0.62-0.36-0.95-1.23-0.73-1.95l0,0c0.22-0.72,0.9-1.01,1.52-0.65l10.77,6.22    c0.62,0.36,0.95,1.23,0.73,1.95l0,0C532.48,385.94,531.79,386.23,531.17,385.87z"/>
		<path class="st12" d="M524.45,388.99l-5.86-3.38c-0.62-0.36-0.95-1.23-0.73-1.95l0,0c0.22-0.72,0.9-1.01,1.52-0.65l5.86,3.38    c0.62,0.36,0.95,1.23,0.73,1.95l0,0C525.75,389.06,525.07,389.35,524.45,388.99z"/>
		<path class="st11" d="M517.68,391.7l-4.01-2.32c-0.62-0.36-0.95-1.23-0.73-1.95l0,0c0.22-0.72,0.9-1.01,1.52-0.65l4.01,2.32    c0.62,0.36,0.95,1.23,0.73,1.95l0,0C518.99,391.77,518.3,392.06,517.68,391.7z"/>
	</g>
</g>
<polygon class="st9" points="39.52,405.89 23.78,396.8 39.43,387.77 55.17,396.86 "/>
<g>
	<path class="st3" d="M523.46,665.19l0.47-11.08l-26.79-8.1l-356.46-205.8c-2.17-1.25-4.85-1.24-7.01,0.03l-107.5,63.45l-10.41-3.14   l-0.67,13.39l0.03,0.01c-0.09,2.42,1.04,4.88,3.44,6.27l378.04,218.26c2.15,1.24,4.8,1.24,6.95,0l116.44-67.22   c2.22-1.28,3.34-3.48,3.44-5.72l0.02,0.01l0.01-0.23C523.46,665.26,523.46,665.23,523.46,665.19z"/>
	<linearGradient id="SVGID_2_" gradientUnits="userSpaceOnUse" x1="15.7641" y1="576.5573" x2="524.1356" y2="576.5573">
		<stop offset="0.0394" style="stop-color:#FFFFFF"/>
		<stop offset="0.2846" style="stop-color:#F8FAFD"/>
		<stop offset="0.5288" style="stop-color:#EBF0F9"/>
		<stop offset="0.7718" style="stop-color:#D6E2F3"/>
		<stop offset="1" style="stop-color:#BCD1EB"/>
	</linearGradient>
	<path class="st20" d="M397.27,725.69L19.24,507.43c-4.61-2.66-4.64-9.3-0.06-12.01l115.15-67.96c2.16-1.27,4.84-1.29,7.01-0.03   l379.32,219c4.63,2.68,4.63,9.36,0,12.04l-116.44,67.22C402.07,726.93,399.43,726.93,397.27,725.69z"/>
	<g>
		<path class="st21" d="M153.08,461.43c-0.61,0.35-1.85,0.21-2.77-0.32l-25.5-14.72c-0.92-0.53-1.17-1.25-0.56-1.6l16.89-9.76    c0.61-0.35,1.86-0.21,2.78,0.32l25.5,14.72c0.92,0.53,1.17,1.25,0.56,1.6L153.08,461.43z"/>
		<path class="st21" d="M182.66,505.37c-0.62,0.36-1.85,0.22-2.78-0.32l-25.5-14.72c-0.92-0.53-1.16-1.24-0.55-1.6l16.9-9.76    c0.6-0.35,1.84-0.21,2.76,0.32l25.5,14.72c0.93,0.54,1.17,1.25,0.57,1.6L182.66,505.37z"/>
		<path class="st21" d="M167.7,523.61c-0.61,0.35-1.85,0.2-2.77-0.33l-25.51-14.72c-0.9-0.52-1.18-1.24-0.57-1.6l16.9-9.76    c0.6-0.35,1.86-0.19,2.76,0.33l25.51,14.72c0.92,0.53,1.17,1.25,0.57,1.6L167.7,523.61z"/>
		<path class="st21" d="M127.24,527.13c-0.6,0.35-1.85,0.21-2.76-0.32l-25.5-14.72c-0.91-0.52-1.16-1.25-0.56-1.6l16.9-9.76    c0.61-0.35,1.86-0.21,2.77,0.32l25.5,14.72c0.91,0.53,1.16,1.25,0.55,1.6L127.24,527.13z"/>
		<path class="st21" d="M101.03,542.27c-0.61,0.35-2.08,0.07-3.29-0.63l-33.41-19.28c-1.2-0.69-1.69-1.54-1.08-1.9L83.09,509    c0.6-0.34,2.09-0.07,3.29,0.62l33.41,19.28c1.21,0.7,1.68,1.56,1.09,1.9L101.03,542.27z"/>
		<path class="st21" d="M320.54,669.13c-0.51,0.29-1.67,0.1-2.59-0.43l-25.48-14.71c-0.93-0.54-1.27-1.21-0.77-1.5l7.34-4.24    c0.5-0.29,1.67-0.09,2.6,0.44l25.48,14.71c0.92,0.53,1.25,1.2,0.75,1.49L320.54,669.13z"/>
		<path class="st21" d="M354.61,689.3c-0.51,0.29-1.67,0.1-2.59-0.43l-25.48-14.71c-0.93-0.54-1.27-1.21-0.77-1.5l7.34-4.24    c0.5-0.29,1.67-0.09,2.6,0.44l25.48,14.71c0.92,0.53,1.25,1.2,0.75,1.49L354.61,689.3z"/>
		<path class="st21" d="M390.74,709.68c-0.49,0.28-1.64,0.08-2.56-0.45l-25.49-14.71c-0.91-0.53-1.28-1.2-0.79-1.48l7.07-4.08    c0.48-0.28,1.65-0.07,2.56,0.46l25.49,14.71c0.92,0.53,1.27,1.2,0.79,1.48L390.74,709.68z"/>
		<path class="st21" d="M368.52,681.52c-0.49,0.28-1.64,0.08-2.56-0.45l-25.49-14.71c-0.91-0.53-1.28-1.2-0.79-1.48l7.07-4.08    c0.48-0.28,1.65-0.07,2.56,0.46l25.49,14.71c0.92,0.53,1.27,1.2,0.79,1.48L368.52,681.52z"/>
		<path class="st21" d="M276.46,643.49c-0.61,0.35-1.86,0.2-2.78-0.33l-165.96-95.77c-0.91-0.52-1.18-1.25-0.57-1.6l19.84-11.46    c0.6-0.34,1.87-0.2,2.77,0.33l165.96,95.77c0.92,0.53,1.17,1.26,0.58,1.61L276.46,643.49z"/>
		<path class="st21" d="M259.46,628.97c-0.04,0.02-0.67-0.31-1.41-0.73l-132.08-76.22c-0.72-0.42-1.3-0.78-1.26-0.81l1.23-0.71    c0.04-0.02,0.68,0.31,1.4,0.73l132.08,76.22c0.73,0.42,1.31,0.79,1.27,0.81L259.46,628.97z"/>
		<path class="st21" d="M162.2,547.29c-0.6,0.35-1.85,0.21-2.77-0.33l-25.5-14.72c-0.91-0.52-1.17-1.25-0.57-1.6l16.9-9.76    c0.61-0.35,1.87-0.2,2.78,0.32l25.5,14.72c0.92,0.53,1.17,1.25,0.56,1.6L162.2,547.29z"/>
		<path class="st21" d="M197.31,567.55c-0.6,0.35-1.86,0.2-2.76-0.32l-25.5-14.72c-0.91-0.53-1.17-1.25-0.57-1.6l16.9-9.76    c0.61-0.35,1.87-0.2,2.78,0.33l25.5,14.72c0.91,0.52,1.16,1.25,0.55,1.6L197.31,567.55z"/>
		<path class="st21" d="M232.43,587.82c-0.6,0.35-1.85,0.21-2.76-0.32l-25.5-14.72c-0.91-0.53-1.16-1.25-0.56-1.59l16.9-9.76    c0.61-0.35,1.86-0.21,2.77,0.32l25.5,14.72c0.91,0.53,1.16,1.25,0.55,1.6L232.43,587.82z"/>
		<path class="st21" d="M267.55,608.09c-0.6,0.35-1.85,0.21-2.76-0.32l-25.5-14.72c-0.92-0.53-1.17-1.25-0.57-1.6l16.9-9.76    c0.61-0.35,1.86-0.21,2.78,0.32l25.5,14.72c0.92,0.53,1.16,1.25,0.55,1.6L267.55,608.09z"/>
		<path class="st21" d="M302.67,628.35c-0.6,0.35-1.86,0.2-2.78-0.33l-25.5-14.71c-0.91-0.53-1.16-1.25-0.56-1.59l16.9-9.76    c0.61-0.35,1.86-0.21,2.77,0.32l25.5,14.71c0.92,0.53,1.18,1.26,0.57,1.61L302.67,628.35z"/>
		<path class="st21" d="M337.79,648.6c-0.6,0.35-1.85,0.2-2.77-0.32l-25.5-14.71c-0.92-0.53-1.17-1.25-0.57-1.6l16.9-9.76    c0.61-0.35,1.86-0.21,2.78,0.32l25.5,14.71c0.91,0.53,1.16,1.25,0.56,1.6L337.79,648.6z"/>
		<path class="st21" d="M416.88,694.25c-0.6,0.35-1.85,0.21-2.77-0.32l-69.48-40.1c-0.92-0.53-1.17-1.25-0.56-1.6l16.9-9.76    c0.61-0.35,1.86-0.21,2.77,0.32l69.48,40.1c0.92,0.53,1.16,1.25,0.56,1.6L416.88,694.25z"/>
		<path class="st21" d="M202.65,543.76c-0.61,0.35-1.83,0.21-2.76-0.32l-25.51-14.72c-0.92-0.53-1.17-1.24-0.56-1.59l16.9-9.76    c0.6-0.35,1.84-0.2,2.76,0.32L219,532.41c0.92,0.53,1.16,1.24,0.56,1.59L202.65,543.76z"/>
		<path class="st21" d="M237.77,564.03c-0.61,0.35-1.85,0.2-2.76-0.32l-25.51-14.72c-0.91-0.52-1.16-1.24-0.55-1.59l16.9-9.76    c0.6-0.35,1.84-0.2,2.75,0.32l25.51,14.72c0.91,0.52,1.16,1.25,0.56,1.59L237.77,564.03z"/>
		<path class="st21" d="M272.89,584.3c-0.61,0.35-1.86,0.2-2.77-0.33l-25.5-14.72c-0.9-0.52-1.18-1.25-0.57-1.6l16.9-9.76    c0.6-0.35,1.87-0.19,2.77,0.33l25.5,14.72c0.91,0.53,1.17,1.25,0.57,1.6L272.89,584.3z"/>
		<path class="st21" d="M308,604.56c-0.61,0.35-1.85,0.2-2.76-0.32l-25.5-14.71c-0.92-0.53-1.18-1.24-0.57-1.6l16.9-9.76    c0.6-0.35,1.84-0.2,2.76,0.33l25.5,14.71c0.91,0.53,1.16,1.25,0.57,1.59L308,604.56z"/>
		<path class="st21" d="M343.13,624.82c-0.61,0.35-1.85,0.2-2.76-0.32l-25.51-14.72c-0.92-0.53-1.17-1.24-0.56-1.59l16.9-9.76    c0.6-0.35,1.84-0.21,2.76,0.32l25.51,14.72c0.91,0.53,1.16,1.25,0.57,1.59L343.13,624.82z"/>
		<path class="st21" d="M378.24,645.07c-0.61,0.35-1.84,0.21-2.76-0.32l-25.49-14.71c-0.93-0.53-1.19-1.25-0.57-1.6l16.9-9.76    c0.6-0.35,1.84-0.2,2.77,0.33l25.49,14.71c0.91,0.53,1.16,1.25,0.56,1.59L378.24,645.07z"/>
		<path class="st21" d="M413.35,665.34c-0.61,0.35-1.85,0.2-2.76-0.32l-25.51-14.72c-0.91-0.53-1.16-1.23-0.55-1.59l16.9-9.76    c0.6-0.35,1.84-0.21,2.75,0.32l25.51,14.72c0.91,0.53,1.16,1.25,0.56,1.59L413.35,665.34z"/>
		<path class="st21" d="M217.61,525.52c-0.62,0.36-1.86,0.21-2.78-0.32l-25.5-14.72c-0.91-0.52-1.16-1.24-0.54-1.6l16.9-9.76    c0.6-0.35,1.84-0.2,2.75,0.32l25.5,14.72c0.92,0.53,1.17,1.25,0.57,1.6L217.61,525.52z"/>
		<path class="st21" d="M252.72,545.78c-0.62,0.36-1.86,0.21-2.77-0.31l-25.5-14.72c-0.92-0.53-1.17-1.25-0.55-1.6l16.9-9.76    c0.6-0.35,1.85-0.2,2.76,0.33l25.5,14.72c0.91,0.52,1.16,1.24,0.56,1.59L252.72,545.78z"/>
		<path class="st21" d="M287.84,566.05c-0.62,0.36-1.86,0.21-2.78-0.32l-25.5-14.72c-0.91-0.53-1.16-1.24-0.54-1.6l16.9-9.76    c0.6-0.35,1.84-0.2,2.75,0.32l25.5,14.72c0.92,0.53,1.17,1.25,0.57,1.6L287.84,566.05z"/>
		<path class="st21" d="M322.95,586.31c-0.62,0.36-1.85,0.22-2.77-0.31l-25.5-14.72c-0.92-0.53-1.17-1.25-0.55-1.6l16.9-9.76    c0.6-0.35,1.85-0.2,2.76,0.33l25.5,14.72c0.92,0.53,1.16,1.24,0.56,1.59L322.95,586.31z"/>
		<path class="st21" d="M358.08,606.56c-0.62,0.36-1.86,0.21-2.76-0.31l-25.5-14.72c-0.92-0.53-1.17-1.25-0.55-1.6l16.9-9.76    c0.6-0.35,1.84-0.21,2.76,0.33l25.5,14.72c0.9,0.52,1.15,1.24,0.55,1.59L358.08,606.56z"/>
		<path class="st21" d="M393.2,626.83c-0.62,0.36-1.86,0.21-2.79-0.32l-25.5-14.72c-0.9-0.52-1.16-1.24-0.55-1.6l16.9-9.76    c0.6-0.35,1.85-0.2,2.76,0.32l25.5,14.72c0.93,0.53,1.18,1.25,0.58,1.6L393.2,626.83z"/>
		<path class="st21" d="M428.31,647.09c-0.62,0.36-1.86,0.21-2.77-0.31l-25.5-14.72c-0.92-0.53-1.17-1.25-0.55-1.6l16.9-9.76    c0.6-0.35,1.84-0.2,2.76,0.33l25.5,14.72c0.91,0.53,1.16,1.25,0.56,1.59L428.31,647.09z"/>
		<path class="st21" d="M147.55,485.1c-0.62,0.36-1.86,0.21-2.78-0.32l-43.24-24.95c-0.92-0.53-1.17-1.25-0.56-1.61l16.9-9.76    c0.6-0.35,1.85-0.2,2.77,0.33l43.24,24.95c0.92,0.53,1.17,1.25,0.57,1.6L147.55,485.1z"/>
		<path class="st21" d="M486.69,653.92c-0.61,0.35-1.85,0.21-2.77-0.32l-43.24-24.95c-0.9-0.52-1.17-1.25-0.56-1.6l16.89-9.76    c0.61-0.35,1.87-0.2,2.77,0.32l43.24,24.95c0.92,0.53,1.17,1.25,0.56,1.6L486.69,653.92z"/>
		<path class="st21" d="M132.58,503.34c-0.61,0.35-1.84,0.21-2.77-0.33l-51.55-29.75c-0.92-0.53-1.18-1.24-0.57-1.6l16.9-9.76    c0.6-0.35,1.84-0.2,2.76,0.33l51.55,29.75c0.93,0.54,1.17,1.25,0.57,1.6L132.58,503.34z"/>
		<path class="st21" d="M92.13,506.88c-0.6,0.35-1.85,0.2-2.77-0.33l-34.37-19.84c-0.92-0.53-1.17-1.25-0.57-1.6l16.9-9.76    c0.61-0.35,1.86-0.21,2.78,0.32l34.37,19.84c0.92,0.53,1.17,1.25,0.56,1.6L92.13,506.88z"/>
		<path class="st21" d="M188.18,481.69c-0.61,0.35-1.85,0.21-2.78-0.33l-25.49-14.71c-0.92-0.53-1.17-1.25-0.56-1.6l16.89-9.76    c0.61-0.35,1.86-0.21,2.78,0.32l25.49,14.71c0.93,0.54,1.18,1.25,0.57,1.6L188.18,481.69z"/>
		<path class="st21" d="M223.15,501.84c-0.61,0.35-1.86,0.21-2.78-0.32l-25.5-14.72c-0.91-0.53-1.17-1.25-0.56-1.6l16.89-9.76    c0.61-0.35,1.86-0.2,2.77,0.32l25.5,14.72c0.92,0.53,1.18,1.25,0.56,1.6L223.15,501.84z"/>
		<path class="st21" d="M258.25,522.1c-0.61,0.35-1.84,0.22-2.76-0.32l-25.5-14.72c-0.91-0.53-1.16-1.25-0.55-1.6l16.89-9.76    c0.61-0.35,1.86-0.21,2.77,0.32l25.5,14.72c0.92,0.53,1.16,1.24,0.55,1.6L258.25,522.1z"/>
		<path class="st21" d="M293.37,542.37c-0.61,0.35-1.86,0.21-2.78-0.32l-25.49-14.71c-0.92-0.53-1.17-1.25-0.56-1.6l16.89-9.76    c0.61-0.35,1.85-0.21,2.78,0.32l25.49,14.71c0.92,0.53,1.17,1.25,0.56,1.6L293.37,542.37z"/>
		<path class="st21" d="M328.48,562.63c-0.61,0.35-1.84,0.22-2.76-0.32l-25.5-14.71c-0.92-0.53-1.17-1.25-0.56-1.6l16.89-9.76    c0.61-0.35,1.85-0.21,2.78,0.32l25.5,14.71c0.92,0.53,1.16,1.24,0.55,1.59L328.48,562.63z"/>
		<path class="st21" d="M363.61,582.89c-0.61,0.35-1.86,0.21-2.77-0.32l-25.51-14.72c-0.91-0.53-1.16-1.24-0.55-1.59l16.89-9.76    c0.61-0.35,1.85-0.21,2.76,0.32l25.51,14.72c0.91,0.52,1.16,1.24,0.55,1.6L363.61,582.89z"/>
		<path class="st21" d="M398.73,603.15c-0.61,0.35-1.85,0.21-2.77-0.32l-25.5-14.72c-0.92-0.53-1.18-1.25-0.57-1.61l16.89-9.76    c0.61-0.35,1.86-0.21,2.78,0.33l25.5,14.72c0.92,0.53,1.17,1.25,0.56,1.6L398.73,603.15z"/>
		<path class="st21" d="M433.83,623.41c-0.61,0.35-1.85,0.21-2.76-0.31l-25.52-14.73c-0.91-0.52-1.15-1.24-0.54-1.59l16.89-9.76    c0.61-0.35,1.85-0.21,2.76,0.31l25.52,14.73c0.91,0.53,1.16,1.24,0.54,1.59L433.83,623.41z"/>
		<path class="st21" d="M454.25,641.28c-0.42-0.24-0.94-0.43-1.49-0.49c-0.54-0.06-0.97,0.01-1.25,0.17l-16.9,9.76    c-0.28,0.16-0.41,0.42-0.31,0.73c0.12,0.31,0.42,0.62,0.85,0.86l6.66,3.84l-22.16,12.8c-0.29,0.17-0.4,0.43-0.29,0.74    c0.11,0.31,0.42,0.61,0.85,0.86l17.18,9.91c0.43,0.25,0.96,0.43,1.5,0.5c0.54,0.07,0.99,0,1.27-0.17l40.17-23.21    c0.28-0.16,0.4-0.42,0.28-0.73c-0.11-0.32-0.42-0.62-0.86-0.87L454.25,641.28z"/>
	</g>
</g>
<g>
	
		<ellipse transform="matrix(0.9998 -0.0177 0.0177 0.9998 -7.1421 2.9501)" class="st0" cx="162.82" cy="404.3" rx="31.64" ry="15.72"/>
	<path class="st16" d="M139.13,391.29l7.41-0.93c4.96-2.25,7.28-3.94,9.49-2.66l0.63,0.36c2.21,1.28,1.93,3.52-0.62,5l-10.9,8.66   c-2.55,1.47-5.99,1.01-8.02-0.78c0,0-1.22-1.1-0.35-5.73C137.26,392.57,137.09,392.47,139.13,391.29z"/>
	<path class="st16" d="M171.71,408.78l7.34,1.38c5.41-0.62,8.13-1.52,9.85,0.37l0.49,0.54c1.71,1.89,0.76,3.95-2.12,4.57   l-13.02,4.91c-2.88,0.62-6.01-0.87-7.4-3.2c0,0-0.82-1.42,1.42-5.56C169.54,409.43,169.4,409.28,171.71,408.78z"/>
	<path class="st22" d="M176.82,410.6c0,3.71-9.02,3.71-9.02,0v-12.06h9.02V410.6z"/>
	<path class="st23" d="M177.96,402.98c-2.96,4.21-9.42,4.23-11.25,1.19l-15.67-125.45h32.56L177.96,402.98z"/>
	<path class="st22" d="M146.11,392.77c-0.21,3.36-9.23,3.36-9.02,0l0.67-10.92h9.02L146.11,392.77z"/>
	<path class="st23" d="M147.88,387.92c-3.6,3.71-10.7,2.13-12.06-0.55l4.78-108.75l22.68,3.36L147.88,387.92z"/>
	<path class="st24" d="M171.71,197.86c-2.24,7.79-8.03,9.99-12.94,4.9c-4.91-5.09-7.08-15.53-4.84-23.32   c2.24-7.79,8.03-9.99,12.94-4.9C171.78,179.63,173.95,190.07,171.71,197.86z"/>
	<path class="st24" d="M179.92,195.39c-2.24,7.79-10.59,10.61-15.5,5.53c-4.91-5.09-7.08-15.53-4.84-23.32   c2.24-7.79,8.03-9.99,12.94-4.9C177.43,177.78,182.16,187.59,179.92,195.39z"/>
	<path class="st17" d="M161.02,217.88l-0.84-0.19c-2.82-0.63-4.61-3.45-3.99-6.27l3.55-15.91c0.63-2.82,3.45-4.61,6.27-3.99   l0.84,0.19c2.82,0.63,4.61,3.45,3.99,6.27l-1.16,15.79C169.06,216.59,163.85,218.51,161.02,217.88z"/>
	<path class="st18" d="M151.54,196.56c0,0,0.85,7.34,11.28,5.87c7.48-1.05,5.3-13.23,12.78-14.45c8.23-1.34,9.72-11.51,6.48-15.41   c-3.24-3.9-12.31-5.94-18.87-3.05C156.65,172.42,146.52,172.25,151.54,196.56z"/>
	<path class="st24" d="M175.63,192.21c-0.54,1.89-2.52,2.99-4.42,2.45c-1.89-0.54-2.99-2.52-2.45-4.42   c0.54-1.89,2.52-2.99,4.42-2.45C175.08,188.34,176.18,190.31,175.63,192.21z"/>
	<path class="st25" d="M139.64,277.2c2.66-14.6-0.2-26.14,0.03-41.67c0-27.91-1.34-34.72,13.42-30.47l4.16,1.1   c2,0.53,3.93,1.28,5.77,2.23c19.45,10.02,24.64,13.11,23.79,24.74c0.09,19.15-2.73,40.62-3.14,50.05   C179.67,296.42,144.09,286.68,139.64,277.2z"/>
	<path class="st19" d="M170.44,203.47l-0.85-1.95c0,0,1.51,1.51,4.37,1.14C173.97,202.66,172.28,203.63,170.44,203.47z"/>
	<path class="st17" d="M232.64,250.65l-2.48-2.94c-1.91-2.26-1.62-5.67,0.64-7.58l0,0c2.26-1.91,5.67-1.62,7.58,0.64l2.48,2.94   c1.91,2.26,1.62,5.67-0.64,7.58l0,0C237.96,253.21,234.55,252.92,232.64,250.65z"/>
	<g>
		<polygon class="st9" points="255.21,328.5 278.92,347.22 277.29,318.79   "/>
		<path class="st23" d="M271.95,341.71l6.97,5.5l-0.56-9.82C277.78,342.06,275.57,343.33,271.95,341.71z"/>
		
			<ellipse transform="matrix(0.9728 -0.2315 0.2315 0.9728 -66.883 69.9599)" class="st26" cx="264.62" cy="319.93" rx="12.72" ry="12.72"/>
		<polygon class="st26" points="273.34,310.67 207.29,202.97 187.98,219.49 244.01,310.17   "/>
		<path class="st23" d="M265.29,322.34c-0.73-0.8-1.32-1.67-1.81-2.58l-0.05,0.03l-58.31-96.1l-13.52,1.84l61.86,100.13l0.05-0.03    c0.49,0.91,1.08,1.78,1.81,2.58c4.05,4.45,10.54,5.36,15.58,2.56L265.29,322.34z"/>
		<path class="st27" d="M210.53,208.05l0-0.01l-3.98-6.31l-3.36,2.92c-2.93,0.09-6.15,1.3-8.94,3.61c-3.02,2.5-4.87,5.74-5.35,8.82    l-1.48,1.29l1.89,3.58l0.11-0.03c0.27,0.62,0.61,1.2,1.05,1.73c3.33,4.02,10.41,3.64,15.82-0.84    C211.44,218.55,213.21,212.12,210.53,208.05z"/>
		<path class="st15" d="M207.22,202.6c-0.08-0.1-0.17-0.18-0.25-0.27l0.01-0.01l-4.39-6.25l-5.12,4.2c-2.07,0.55-4.17,1.6-6.06,3.17    c-1.84,1.53-3.24,3.33-4.17,5.21l-4.3,3.52l4.1,5.81c0.18,0.29,0.37,0.58,0.6,0.84c3.33,4.02,10.41,3.64,15.82-0.84    C208.85,213.5,210.54,206.61,207.22,202.6z"/>
		<path class="st25" d="M199.05,211.73c-5.41,4.48-12.5,4.85-15.82,0.84c-3.33-4.02-1.63-10.91,3.78-15.39    c5.41-4.48,12.5-4.85,15.82-0.84C206.15,200.36,204.46,207.25,199.05,211.73z"/>
	</g>
	<path class="st17" d="M171.14,224.53c0,0,3.93,20.98,28.14,46.59c6.66,7.04,40.13,2.76,40.13,2.76l-0.02-6.57   c0,0-25.15,2.73-31.38-5.7C201,252.12,190.86,215.83,171.14,224.53z"/>
	<path class="st25" d="M175.61,238.73l12.01,25.63c1.64,1.8,18.83-10.8,16.72-13.63c-0.37-0.5-15.56-30.26-27.14-33.56   C167.79,214.49,168.83,227.68,175.61,238.73z"/>
	<path class="st17" d="M244.04,277l-3.85-0.01c-2.96-0.01-5.37-2.44-5.36-5.4l0,0c0.01-2.96,2.44-5.37,5.4-5.36l3.85,0.01   c2.96,0.01,5.37,2.44,5.36,5.4l0,0C249.42,274.6,246.99,277.01,244.04,277z"/>
</g>
<path class="st28" d="M214.54,275.8"/>
<ellipse transform="matrix(5.424603e-03 -1 1 5.424603e-03 -219.6972 423.7451)" class="st29" cx="103.18" cy="322.32" rx="10.83" ry="18.76"/>
<path class="st29" d="M48.87,586.92c-5.16,2.98-13.55,2.96-18.74-0.03s-5.22-7.84-0.06-10.82c5.16-2.98,13.55-2.96,18.74,0.03  C54.01,579.09,54.03,583.94,48.87,586.92z"/>
<path class="st29" d="M621.49,676.59c-5.16,2.98-13.55,2.96-18.74-0.03c-5.19-3-5.22-7.84-0.06-10.82  c5.16-2.98,13.55-2.96,18.74,0.03C626.62,668.77,626.65,673.61,621.49,676.59z"/>
</svg>
